<svg width="20" height="22" viewBox="0 0 20 22" fill="none" xmlns="http://www.w3.org/2000/svg">
<path d="M20 3.46C19.88 1.18667 13.6867 0.573334 10 0.573334C6.31333 0.573334 0 1.19333 0 3.52V18.58C0 20.9067 6.28667 21.5333 10 21.5333C13.7133 21.5333 20 20.9133 20 18.58V3.46ZM18.6667 8.5C18.4467 9.07333 15.2933 10.1333 10 10.1333C7.52412 10.1965 5.05261 9.89095 2.66667 9.22667V10.6133C5.06454 11.2103 7.52912 11.4971 10 11.4667C12.6667 11.4667 16.62 11.1467 18.6667 10.1333V13.58C18.4467 14.1533 15.2933 15.2133 10 15.2133C7.52278 15.2678 5.05125 14.9533 2.66667 14.28V15.6667C5.06454 16.2637 7.52912 16.5505 10 16.52C12.6667 16.52 16.62 16.2 18.6667 15.1867V18.5867C18.4333 19.16 15.28 20.22 10 20.22C4.72 20.22 1.53333 19.1333 1.33333 18.58V3.54667C1.53333 3 4.66667 1.90667 10 1.90667C15.18 1.90667 18.3067 2.92667 18.6667 3.48667C18.32 4.06667 15.1933 5.08 10 5.08C7.52419 5.1417 5.0529 4.83616 2.66667 4.17333V5.56667C5.0651 6.15991 7.52948 6.44444 10 6.41333C12.6667 6.41333 16.62 6.09333 18.6667 5.08V8.5Z" fill="black"/>
</svg>