<svg width="24" height="24" viewBox="0 0 24 24" fill="none" xmlns="http://www.w3.org/2000/svg">
<path d="M22 0H2C1.46957 0 0.960859 0.210714 0.585786 0.585786C0.210714 0.960859 0 1.46957 0 2V22C0 22.5304 0.210714 23.0391 0.585786 23.4142C0.960859 23.7893 1.46957 24 2 24H22C22.5304 24 23.0391 23.7893 23.4142 23.4142C23.7893 23.0391 24 22.5304 24 22V2C24 1.46957 23.7893 0.960859 23.4142 0.585786C23.0391 0.210714 22.5304 0 22 0ZM16.7125 15.2875C16.9003 15.4771 17.0056 15.7332 17.0056 16C17.0056 16.2668 16.9003 16.5229 16.7125 16.7125C16.5214 16.8973 16.2659 17.0006 16 17.0006C15.7341 17.0006 15.4786 16.8973 15.2875 16.7125L12 13.4125L8.7125 16.7125C8.52136 16.8973 8.26588 17.0006 8 17.0006C7.73412 17.0006 7.47864 16.8973 7.2875 16.7125C7.09972 16.5229 6.99437 16.2668 6.99437 16C6.99437 15.7332 7.09972 15.4771 7.2875 15.2875L10.5875 12L7.2875 8.7125C7.12804 8.5182 7.04655 8.27154 7.05888 8.02049C7.07121 7.76944 7.17648 7.53195 7.35421 7.35421C7.53195 7.17648 7.76944 7.07121 8.02049 7.05888C8.27154 7.04655 8.5182 7.12804 8.7125 7.2875L12 10.5875L15.2875 7.2875C15.4818 7.12804 15.7285 7.04655 15.9795 7.05888C16.2306 7.07121 16.4681 7.17648 16.6458 7.35421C16.8235 7.53195 16.9288 7.76944 16.9411 8.02049C16.9535 8.27154 16.872 8.5182 16.7125 8.7125L13.4125 12L16.7125 15.2875Z" fill="#FD3838" fill-opacity="0.9"/>
</svg>