<svg width="171" height="170" viewBox="0 0 171 170" fill="none" xmlns="http://www.w3.org/2000/svg">
<path d="M85.5 170C38.5 170 0.5 132 0.5 85C0.5 38 38.5 0 85.5 0C132.5 0 170.5 38 170.5 85C170.5 132 132 170 85.5 170ZM85.5 10C44 10 10.5 43.5 10.5 85C10.5 126.5 44 160 85.5 160C127 160 160.5 126.5 160.5 85C160.5 43.5 126.5 10 85.5 10Z" fill="black"/>
<path d="M36.5 146.5L27.5 142.5C30 136.5 38 133 46.5 129C55 125 65.5 120.5 65.5 115V107.5C62.5 105 57.5 99.5 56.5 91.5C54 89 50 84.5 50 78.5C50 75 51.5 72 52.5 70C51.5 66 50.5 58.5 50.5 52.5C50.5 33 64 20 85.5 20C91.5 20 99 21.5 103 26C112.5 28 120.5 39 120.5 52.5C120.5 61 119 68 118 71.5C119 73 120 75.5 120 78.5C120 85 116.5 89.5 113.5 91.5C112.5 99.5 108 104.5 105 107V115C105 119.5 114 123 122 126C131.5 129.5 141.5 133.5 145 141.5L135.5 145C134 141 126 138 118.5 135.5C107.5 131.5 95 127 95 115.5V102.5L97.5 101C97.5 101 103.5 97 103.5 89V85.5L106.5 84C107 84 109.5 82.5 109.5 78.5C109.5 77.5 108.5 76 108 75.5L106 73.5L107 71C107 71 109.5 63 109.5 53C109.5 43.5 104 36.5 99.5 36.5H96.5L95 34C95 32 91.5 30 85.5 30C70 30 60.5 38.5 60.5 52.5C60.5 59 63 70 63 70L63.5 72.5L61.5 75C61 75 60 76.5 60 78.5C60 81 63 84 64.5 85L66.5 86.5V89C66.5 96.5 73 100.5 73 101L75.5 102.5V115.5C75.5 127.5 62.5 133.5 50.5 138.5C45 140.5 37.5 144 36.5 146.5Z" fill="black"/>
</svg>