<svg width="10" height="17" viewBox="0 0 10 17" fill="none" xmlns="http://www.w3.org/2000/svg">
<path d="M4.47665 16.6364V0.272726H5.52495V16.6364H4.47665ZM8.00506 5.18182C7.92836 4.53409 7.61728 4.03125 7.07182 3.6733C6.52637 3.31534 5.85733 3.13636 5.06472 3.13636C4.48517 3.13636 3.97807 3.23011 3.54341 3.41761C3.11302 3.60511 2.77637 3.86293 2.53347 4.19105C2.29483 4.51918 2.17552 4.89204 2.17552 5.30966C2.17552 5.65909 2.25861 5.95952 2.4248 6.21094C2.59526 6.4581 2.81259 6.66477 3.07679 6.83097C3.341 6.9929 3.61799 7.12713 3.90776 7.23366C4.19753 7.33594 4.46387 7.41903 4.70676 7.48295L6.03631 7.84091C6.37722 7.9304 6.75648 8.05398 7.17409 8.21165C7.59597 8.36932 7.99867 8.58452 8.38219 8.85724C8.76998 9.12571 9.08958 9.47088 9.341 9.89276C9.59242 10.3146 9.71813 10.8324 9.71813 11.446C9.71813 12.1534 9.53276 12.7926 9.16202 13.3636C8.79554 13.9347 8.25861 14.3885 7.55123 14.7251C6.8481 15.0618 5.9937 15.2301 4.98801 15.2301C4.05051 15.2301 3.23873 15.0788 2.55265 14.7763C1.87083 14.4737 1.3339 14.0518 0.94185 13.5107C0.554066 12.9695 0.334606 12.3409 0.283469 11.625H1.91983C1.96245 12.1193 2.12864 12.5284 2.41841 12.8523C2.71245 13.1719 3.08319 13.4105 3.53063 13.5682C3.98233 13.7216 4.46813 13.7983 4.98801 13.7983C5.59313 13.7983 6.13645 13.7003 6.61799 13.5043C7.09952 13.304 7.48091 13.027 7.76216 12.6733C8.04341 12.3153 8.18404 11.8977 8.18404 11.4205C8.18404 10.9858 8.06259 10.6321 7.81969 10.3594C7.57679 10.0866 7.25719 9.86506 6.86088 9.6946C6.46458 9.52415 6.03631 9.375 5.57608 9.24716L3.96529 8.78693C2.94256 8.4929 2.1329 8.07315 1.53631 7.5277C0.939719 6.98224 0.641424 6.26847 0.641424 5.38636C0.641424 4.65341 0.839577 4.0142 1.23588 3.46875C1.63645 2.91903 2.17338 2.4929 2.84668 2.19034C3.52424 1.88352 4.28063 1.73011 5.11586 1.73011C5.95961 1.73011 6.70961 1.88139 7.36586 2.18395C8.02211 2.48224 8.54199 2.89133 8.92551 3.41122C9.3133 3.93111 9.51784 4.52131 9.53915 5.18182H8.00506Z" fill="black"/>
</svg>