<svg width="24" height="24" viewBox="0 0 24 24" fill="none" xmlns="http://www.w3.org/2000/svg">
<path d="M20 11.5V7L15.5 2H5C4.73478 2 4.48043 2.10536 4.29289 2.29289C4.10536 2.48043 4 2.73478 4 3V21C4 21.2652 4.10536 21.5196 4.29289 21.7071C4.48043 21.8946 4.73478 22 5 22H10" stroke="white" stroke-width="2" stroke-linecap="round" stroke-linejoin="round"/>
<path d="M17 18C18.1046 18 19 17.1046 19 16C19 14.8954 18.1046 14 17 14C15.8954 14 15 14.8954 15 16C15 17.1046 15.8954 18 17 18Z" stroke="white" stroke-width="2" stroke-linecap="round" stroke-linejoin="round"/>
<path d="M21 22C21 20.9391 20.5786 19.9217 19.8284 19.1716C19.0783 18.4214 18.0609 18 17 18C15.9391 18 14.9217 18.4214 14.1716 19.1716C13.4214 19.9217 13 20.9391 13 22M15 2V7H20" stroke="white" stroke-width="2" stroke-linecap="round" stroke-linejoin="round"/>
</svg>